<?xml version="1.0" standalone="no"?>
<!DOCTYPE svg PUBLIC "-//W3C//DTD SVG 20010904//EN"
 "http://www.w3.org/TR/2001/REC-SVG-20010904/DTD/svg10.dtd">
<svg version="1.0" xmlns="http://www.w3.org/2000/svg"
 width="634.000000pt" height="576.000000pt" viewBox="0 0 634.000000 576.000000"
 preserveAspectRatio="xMidYMid meet">

<g transform="translate(0.000000,576.000000) scale(0.100000,-0.100000)"
fill="#000000" stroke="none">
<path d="M0 2880 l0 -2880 3170 0 3170 0 0 2880 0 2880 -3170 0 -3170 0 0
-2880z m3540 2556 c173 -28 360 -75 520 -131 243 -85 552 -259 775 -438 44
-36 143 -129 220 -208 279 -286 475 -607 601 -989 85 -257 120 -451 131 -735
12 -322 -31 -606 -140 -930 -198 -584 -591 -1064 -1140 -1394 -270 -162 -595
-280 -920 -333 -181 -30 -630 -32 -807 -4 -437 68 -833 240 -1220 527 -178
132 -457 436 -591 644 -177 275 -321 648 -373 965 -66 405 -42 806 70 1178 66
219 182 478 290 649 127 199 353 457 534 607 358 297 763 486 1235 576 61 11
153 25 205 30 134 12 496 4 610 -14z m-2321 -515 c59 -55 33 -148 -48 -172
-31 -9 -43 -8 -69 5 -17 9 -37 26 -43 39 -7 12 -17 25 -23 29 -6 4 -136 8
-288 8 -271 0 -278 0 -278 20 0 20 7 20 280 20 l281 0 38 40 c32 34 44 40 78
40 31 0 48 -7 72 -29z m4052 0 c64 -65 20 -171 -71 -171 -33 0 -48 6 -71 29
-64 65 -20 171 71 171 33 0 48 -6 71 -29z m-4052 -3990 c68 -64 23 -171 -72
-171 -34 0 -50 6 -70 25 -95 95 44 238 142 146z m4049 11 c9 -9 24 -29 33 -42
l16 -25 282 1 281 1 0 -22 0 -22 -267 3 c-148 1 -278 0 -290 -3 -12 -3 -25
-14 -28 -24 -4 -11 -19 -26 -35 -34 -78 -40 -160 4 -160 85 0 60 41 100 104
100 31 0 52 -6 64 -18z"/>
<path d="M2980 5403 c-428 -31 -866 -182 -1235 -426 -89 -59 -333 -257 -391
-319 -314 -326 -514 -665 -639 -1080 -82 -271 -112 -517 -102 -818 12 -331 71
-599 199 -905 66 -157 91 -206 183 -355 218 -351 538 -658 901 -863 231 -130
400 -199 639 -261 237 -62 318 -71 635 -71 328 0 424 11 664 76 646 175 1176
567 1528 1132 132 213 268 547 321 792 79 358 71 828 -18 1163 -105 391 -250
683 -485 977 -140 175 -187 224 -325 339 -235 197 -417 309 -695 428 -226 97
-505 166 -755 188 -111 9 -320 11 -425 3z m235 -145 c35 -30 38 -84 5 -110
-43 -35 -102 -13 -116 44 -5 22 0 33 24 58 36 36 52 37 87 8z m-195 -63 c0
-23 -4 -25 -42 -25 -54 0 -216 -24 -333 -50 -241 -52 -575 -197 -783 -339 -94
-65 -97 -68 -94 -103 4 -42 -33 -92 -75 -102 -55 -14 -113 36 -113 98 0 13 12
39 26 56 25 29 31 31 83 29 55 -3 59 -1 175 75 314 206 634 321 1036 375 113
15 120 14 120 -14z m450 11 c362 -45 718 -176 1020 -375 116 -76 128 -81 163
-75 48 8 91 -9 106 -42 32 -72 -6 -134 -83 -134 -37 0 -48 5 -70 31 -17 20
-26 42 -26 66 0 22 -7 41 -17 50 -129 101 -420 255 -608 321 -179 62 -419 113
-590 124 -33 3 -41 7 -43 26 -4 27 -4 27 148 8z m-250 -741 c80 -41 82 -151 2
-194 -21 -11 -22 -17 -24 -224 -3 -204 -4 -212 -23 -212 -19 0 -20 8 -25 211
l-5 210 -37 33 c-21 18 -38 39 -38 47 0 11 -29 14 -152 14 l-153 0 -112 -110
c-106 -103 -113 -112 -113 -149 0 -49 -36 -83 -85 -79 -28 2 -49 -16 -211
-174 l-179 -177 127 -127 c114 -114 129 -126 155 -121 81 15 130 -90 65 -139
-25 -19 -73 -17 -101 5 -19 14 -25 29 -25 58 -1 36 -10 48 -124 162 -68 68
-125 122 -127 120 -2 -2 -63 -62 -135 -134 -123 -122 -131 -128 -147 -112 -17
16 -10 25 116 151 l134 134 -133 132 c-121 121 -130 134 -116 148 15 15 24 9
108 -73 50 -50 107 -107 126 -127 19 -21 38 -38 43 -38 5 0 88 79 185 175 140
139 174 178 169 194 -3 11 1 35 9 55 16 37 46 52 90 44 20 -4 45 15 143 114
l118 118 161 0 162 0 17 26 c16 24 65 53 93 54 7 0 26 -7 42 -15z m-1873 -168
c-278 -344 -460 -788 -495 -1212 -6 -73 -9 -80 -29 -83 -20 -3 -23 1 -23 30 0
57 38 302 61 394 78 318 244 648 465 922 64 80 67 82 81 62 14 -19 10 -26 -60
-113z m3669 61 c307 -380 486 -814 530 -1285 l7 -73 -27 0 c-24 0 -26 3 -26
45 0 25 -7 90 -15 146 -64 427 -224 781 -518 1149 -40 50 -47 63 -37 75 7 8
16 15 20 15 4 0 34 -33 66 -72z m-901 -243 c243 -85 391 -356 331 -605 -34
-141 -93 -217 -412 -530 -209 -204 -251 -235 -364 -265 -103 -27 -303 -11
-326 26 -3 6 31 49 77 95 69 69 89 84 114 84 17 0 56 7 86 16 51 15 70 32 312
272 170 170 265 272 278 300 15 29 22 64 22 110 2 101 -15 146 -81 212 -47 47
-68 59 -121 74 -74 21 -141 15 -211 -17 -58 -28 -517 -483 -545 -542 -10 -22
-21 -67 -24 -100 l-5 -60 -87 -84 -88 -83 -14 35 c-41 96 -44 198 -11 316 31
110 66 155 329 417 266 265 318 306 435 339 73 20 236 15 305 -10z m595 -122
c45 -50 42 -95 -10 -144 l-40 -38 -2 -318 -3 -318 -22 -3 -23 -3 0 325 0 325
-30 16 c-33 17 -60 61 -60 99 0 34 54 94 88 98 47 6 71 -3 102 -39z m-1164
-767 c29 -29 34 -41 34 -81 l0 -48 -132 -130 c-73 -72 -219 -215 -324 -318
-115 -113 -201 -190 -217 -194 -40 -10 -76 2 -109 37 -22 24 -28 39 -28 77 0
46 0 47 118 161 66 63 214 208 330 323 206 203 211 207 252 207 34 0 48 -6 76
-34z m-582 -244 l50 -23 -83 -83 c-79 -79 -86 -84 -136 -90 -29 -3 -70 -13
-91 -22 -47 -19 -535 -500 -559 -550 -86 -182 10 -379 203 -414 77 -14 161 5
225 49 69 48 484 472 501 511 8 19 17 62 21 94 8 58 10 62 92 145 93 94 92 94
118 7 32 -105 13 -264 -42 -370 -36 -68 -506 -544 -583 -591 -94 -57 -184 -78
-309 -73 -99 4 -115 7 -185 41 -270 128 -373 443 -234 711 25 48 87 117 290
321 275 278 324 317 437 347 90 25 218 20 285 -10z m-2095 -88 c27 -35 26 -59
-4 -89 -64 -65 -162 18 -109 93 23 33 86 31 113 -4z m4721 6 c44 -44 6 -120
-61 -120 -30 0 -69 39 -69 70 0 10 9 29 21 44 26 33 79 36 109 6z m-4737 -295
c8 -111 47 -317 82 -427 84 -262 224 -537 361 -711 17 -21 31 -27 60 -27 59
-1 94 -37 94 -98 0 -48 -34 -82 -81 -82 -51 0 -75 13 -94 51 -13 24 -14 37 -5
63 10 32 8 38 -70 149 -74 106 -193 328 -242 451 -66 168 -115 358 -143 556
-21 152 -20 170 8 170 23 0 24 -4 30 -95z m4697 68 c0 -45 -40 -300 -60 -387
-55 -236 -214 -589 -350 -778 -68 -94 -69 -97 -63 -145 5 -42 2 -53 -18 -77
-35 -40 -95 -46 -131 -13 -36 34 -43 67 -23 110 18 39 50 57 99 57 31 0 38 7
98 98 125 186 196 323 266 512 68 186 113 382 128 564 6 82 8 86 30 86 19 0
24 -5 24 -27z m-3810 -453 l0 -321 40 -38 c34 -33 40 -44 40 -80 0 -119 -177
-141 -209 -26 -12 44 8 96 46 120 l32 20 1 323 0 322 25 0 25 0 0 -320z m2295
205 c17 -16 25 -35 25 -58 0 -30 14 -47 126 -157 l125 -123 135 134 c127 127
135 133 151 116 17 -16 11 -24 -117 -152 l-134 -135 133 -130 c112 -110 131
-133 121 -146 -7 -8 -17 -13 -21 -12 -8 3 -91 80 -202 187 l-67 66 -175 -175
c-165 -165 -175 -177 -175 -213 0 -52 -37 -90 -85 -85 -33 2 -43 -5 -153 -115
l-117 -117 -158 0 -158 0 -39 -41 c-38 -40 -42 -41 -87 -36 -35 4 -53 12 -70
32 -44 50 -22 151 37 170 19 6 20 16 20 221 l0 214 25 0 25 0 0 -215 0 -215
25 -10 c13 -5 31 -23 40 -40 l16 -30 150 0 151 0 112 108 c106 102 111 109
111 149 1 57 26 83 79 83 40 0 46 5 216 175 l175 175 -125 125 c-113 113 -128
125 -160 125 -54 0 -80 23 -80 70 0 73 75 106 125 55z m-2331 -1383 c204 -167
446 -300 708 -390 151 -52 388 -105 531 -117 73 -7 77 -9 77 -32 0 -23 -3 -24
-37 -19 -21 3 -78 11 -127 16 -178 21 -383 73 -548 139 -123 49 -299 136 -373
184 -247 162 -343 240 -324 263 6 8 14 14 17 14 3 0 37 -26 76 -58z m3039 20
c-4 -11 -185 -148 -236 -179 -34 -20 -87 -54 -117 -74 -190 -127 -578 -265
-850 -302 -235 -32 -220 -32 -220 -4 0 23 4 24 79 31 433 36 887 220 1245 505
72 57 80 61 90 44 5 -10 9 -20 9 -21z m-1524 -511 c49 -38 19 -121 -44 -121
-36 0 -60 22 -70 62 -5 21 -1 33 19 52 30 31 62 33 95 7z"/>
</g>
</svg>
